<svg xmlns="http://www.w3.org/2000/svg" viewBox="0 0 1024 1024">
  <rect width="1024" height="1024" rx="180" fill="#000"/>
  <g transform="translate(73 362) scale(2)">
    <path fill="#fff" fill-rule="evenodd" d="M58 9h111c34 0 51 14 51 41h-33c0-14-8-21-24-21H63c-19 0-29 9-29 28v36c0 19 10 28 29 28h100c16 0 24-7 24-21h33c0 27-17 41-51 41H58c-37 0-55-16-55-49V58C3 25 21 9 58 9zm5 21h100c15 0 23 6 24 19H66c-19 0-29 9-29 26s10 26 29 26h121c-1 13-9 19-24 19H63c-20 0-30-9-30-28V58c0-19 10-28 30-28z"/>
    <path fill="#fff" d="M234 9h163v21H234z"/>
    <path fill="#fff" d="M397 30v22L270 78h-36V57z"/>
    <path fill="#fff" fill-rule="evenodd" d="M272 60h89c34 0 51 13 51 40s-17 41-51 41h-92c-31 0-48-12-51-35h34c3 10 11 15 24 15h82c14 0 21-7 21-20s-7-20-21-20h-86z"/>
  </g>
</svg>
